# xmcd
#
# Track frame offsets: 
#        150
#        18782
#        34322
#        46810
#        57502
#        72907
#        87082
#        99480
#        116322
#        130540
#        141715
#        154820
#        167135
#        179510
#
# Disc length: 2918 seconds
#
# Revision: 3
# Processed by: cddbd v1.5.1PL0 Copyright (c) Steve Scherf et al.
# Submitted via: ExactAudioCopy v0.95a3
#
DISCID=bb0b640e
DTITLE=Various Artist - Story Of Blues Guitar [CD1]
DYEAR=1900
DGENRE=
TTITLE0=Artie White - Warm Room
TTITLE1=Artie White - Leaning Tree
TTITLE2="Little" Johnny Taylor - Everybody Knows About My Good Thing
TTITLE3=B.B.King - Recession Blues
TTITLE4="Little" Joe Blue - Encourage Me Baby
TTITLE5="Little" Joe Blue - Little Joe Blue
TTITLE6=Cash McCall - Mojo Woman
TTITLE7=T-Bone Walker - No Do Right
TTITLE8=T-Bone Walker - Will My Girl Be Home Tonight
TTITLE9=Memphis Slim - Lonesome
TTITLE10=Memphis Slim - True Love
TTITLE11=Elmore James - Blues Before Sunrise
TTITLE12=Elmore James - Dust My Broom
TTITLE13=Ike Turner - All The Blues, All The Time
EXTD=
EXTT0=
EXTT1=
EXTT2=
EXTT3=
EXTT4=
EXTT5=
EXTT6=
EXTT7=
EXTT8=
EXTT9=
EXTT10=
EXTT11=
EXTT12=
EXTT13=
PLAYORDER=
